# xmcd
#
# Track frame offsets:
#	150
#	19273
#	38750
#	56363
#	76108
#	92031
#	106470
#	120250
#	133188
#	149355
#	164196
#	181472
#
# Disc length: 2595 seconds
# Revision: 0
# Processed by: cddbd v1.5.2PL0 Copyright (c) Steve Scherf et al.
# Submitted via: dBpowerAMP V12.0
#
DISCID=9f0a210c
DTITLE=Tina and Walt Wilkins - Be Mine
DYEAR=2015
DGENRE=Country
TTITLE0=Ireland
TTITLE1=Storms Never Last
TTITLE2=On a Dream With You
TTITLE3=Be Mine
TTITLE4=A Soft Place
TTITLE5=You'd Think By Now
TTITLE6=Never Ending Song of Love
TTITLE7=We Must Have Been Out Of Our Minds
TTITLE8=Inisheer
TTITLE9=A Man and a Woman
TTITLE10=Love, Love, Love, Love
TTITLE11=When We're Gone Long Gone
EXTD=
EXTT0=
EXTT1=
EXTT2=
EXTT3=
EXTT4=
EXTT5=
EXTT6=
EXTT7=
EXTT8=
EXTT9=
EXTT10=
EXTT11=
PLAYORDER=
